<svg xmlns="http://www.w3.org/2000/svg" version="1.1" xmlns:xlink="http://www.w3.org/1999/xlink" xmlns:svgjs="http://svgjs.dev/svgjs" width="1000" height="1000" viewBox="0 0 1000 1000"><rect width="1000" height="1000" fill="#ffffff"></rect><g transform="matrix(0.7,0,0,0.7,149.9395621338267,132.4478542510122)"><svg viewBox="0 0 235 247" data-background-color="#ffffff" preserveAspectRatio="xMidYMid meet" height="1051" width="1000" xmlns="http://www.w3.org/2000/svg" xmlns:xlink="http://www.w3.org/1999/xlink"><g id="tight-bounds" transform="matrix(1,0,0,1,0.020289855072462615,-0.09999999999999432)"><svg viewBox="0 0 234.95942028985505 247.2" height="247.2" width="234.95942028985505"><g><svg viewBox="0 0 234.95942028985505 247.2" height="247.2" width="234.95942028985505"><g><svg viewBox="0 0 234.95942028985505 247.2" height="247.2" width="234.95942028985505"><g id="textblocktransform"><svg viewBox="0 0 234.95942028985505 247.2" height="247.2" width="234.95942028985505" id="textblock"><g><svg viewBox="0 0 234.95942028985505 247.2" height="247.2" width="234.95942028985505"><g transform="matrix(1,0,0,1,0,0)"><svg width="234.95942028985505" viewBox="2.2699999809265137 -40.43000030517578 38.43000030517578 40.43000030517578" height="247.2" data-palette-color="#f9180b"><path d="M15.55-18.36L15.55-20.12 26.15-20.12Q28.56-20.12 30.24-21.68 31.91-23.24 31.91-26.12L31.91-26.12Q31.91-28.25 30.15-29.94 28.39-31.64 26.15-31.64L26.15-31.64 11.06-31.64 11.06 0 9.3 0 9.3-33.4 26.15-33.4Q29.13-33.4 31.4-31.19 33.67-28.98 33.67-26.12L33.67-26.12Q33.67-22.61 31.47-20.48 29.27-18.36 26.15-18.36L26.15-18.36 15.55-18.36ZM15.55-14.84L15.55-16.6 26.15-16.6Q29.96-16.6 32.69-19.27 35.42-21.95 35.42-26.12L35.42-26.12Q35.42-29.71 32.63-32.43 29.83-35.16 26.15-35.16L26.15-35.16 7.54-35.16 7.54 0 5.79 0 5.79-36.91 26.15-36.91Q29.05-36.91 31.6-35.42 34.16-33.94 35.67-31.43 37.18-28.93 37.18-26.12L37.18-26.12Q37.18-21.31 33.92-18.08 30.66-14.84 26.15-14.84L26.15-14.84 15.55-14.84ZM15.55-11.33L15.55-13.09 26.15-13.09Q29.57-13.09 32.5-14.77 35.42-16.46 37.18-19.47 38.94-22.49 38.94-26.12L38.94-26.12Q38.94-29.42 37.19-32.31 35.45-35.21 32.5-36.94 29.54-38.67 26.15-38.67L26.15-38.67 4.03-38.67 4.03 0 2.27 0 2.27-40.43 26.15-40.43Q29.98-40.43 33.35-38.46 36.72-36.5 38.71-33.19 40.7-29.88 40.7-26.12L40.7-26.12Q40.7-21.78 38.83-18.48 36.96-15.19 33.76-13.33L33.76-13.33 38.31 0 36.45 0 32.1-12.5Q31.13-12.11 30.62-11.96L30.62-11.96 34.69 0 32.84 0 28.86-11.55Q28.64-11.5 27.29-11.38L27.29-11.38 31.08 0 29.22 0 25.49-11.33 23.9-11.33 27.47 0 25.61 0 22.02-11.33 15.55-11.33ZM14.58-28.13L14.58 0 12.82 0 12.82-29.88 26.15-29.88Q27.78-29.88 28.97-28.77 30.15-27.66 30.15-26.12L30.15-26.12Q30.15-21.88 26.15-21.88L26.15-21.88 15.55-21.88 15.55-23.63 26.15-23.63Q27.2-23.63 27.8-24.18 28.39-24.73 28.39-26.12L28.39-26.12Q28.39-26.98 27.75-27.55 27.1-28.13 26.15-28.13L26.15-28.13 14.58-28.13Z" opacity="1" transform="matrix(1,0,0,1,0,0)" fill="#f9180b" class="undefined-text-0" data-fill-palette-color="primary" id="text-0"></path></svg></g></svg></g></svg></g></svg></g></svg></g><defs></defs></svg><rect width="234.95942028985505" height="247.2" fill="none" stroke="none" visibility="hidden"></rect></g></svg></g></svg>